<svg data-v-423bf9ae="" xmlns="http://www.w3.org/2000/svg" viewBox="0 0 364 90" class="iconLeft"><!----><!----><!----><g data-v-423bf9ae="" id="38f76e12-dc0d-4ef5-aa62-277a967f780b" fill="black" transform="matrix(6.054490506946714,0,0,6.054490506946714,108.30474354937613,-10.428858020699465)"><path d="M5.05 8.37Q5.05 8.48 4.98 8.55Q4.91 8.62 4.80 8.62L4.80 8.62L3.64 8.62Q3.54 8.62 3.54 8.72L3.54 8.72L3.54 11.17Q3.54 11.97 4.19 11.97L4.19 11.97L4.62 11.97Q4.73 11.97 4.80 12.04Q4.87 12.11 4.87 12.22L4.87 12.22L4.87 13.69Q4.87 13.92 4.63 13.94L4.63 13.94Q3.99 13.97 3.72 13.97L3.72 13.97Q2.51 13.97 1.92 13.58Q1.33 13.19 1.32 12.12L1.32 12.12L1.32 8.72Q1.32 8.62 1.22 8.62L1.22 8.62L0.53 8.62Q0.42 8.62 0.35 8.55Q0.28 8.48 0.28 8.37L0.28 8.37L0.28 7.01Q0.28 6.90 0.35 6.83Q0.42 6.76 0.53 6.76L0.53 6.76L1.22 6.76Q1.32 6.76 1.32 6.66L1.32 6.66L1.32 5.08Q1.32 4.97 1.39 4.90Q1.46 4.83 1.57 4.83L1.57 4.83L3.29 4.83Q3.40 4.83 3.47 4.90Q3.54 4.97 3.54 5.08L3.54 5.08L3.54 6.66Q3.54 6.76 3.64 6.76L3.64 6.76L4.80 6.76Q4.91 6.76 4.98 6.83Q5.05 6.90 5.05 7.01L5.05 7.01L5.05 8.37ZM9.03 6.65Q9.95 6.65 10.71 6.96Q11.47 7.28 11.90 7.83Q12.33 8.39 12.33 9.06L12.33 9.06L12.33 13.75Q12.33 13.86 12.26 13.93Q12.19 14 12.08 14L12.08 14L10.26 14Q10.15 14 10.08 13.93Q10.01 13.86 10.01 13.75L10.01 13.75L10.01 13.47Q10.01 13.40 9.97 13.38Q9.94 13.37 9.90 13.43L9.90 13.43Q9.34 14.11 8.09 14.11L8.09 14.11Q6.99 14.11 6.33 13.59Q5.67 13.06 5.67 12.04L5.67 12.04Q5.67 10.96 6.42 10.37Q7.17 9.79 8.58 9.79L8.58 9.79L9.91 9.79Q10.01 9.79 10.01 9.69L10.01 9.69L10.01 9.45Q10.01 9.07 9.77 8.86Q9.52 8.64 9.07 8.64L9.07 8.64Q8.75 8.64 8.52 8.74Q8.29 8.85 8.19 9.03L8.19 9.03Q8.12 9.13 8.06 9.18Q7.99 9.23 7.90 9.21L7.90 9.21L6.02 8.97Q5.77 8.95 5.80 8.78L5.80 8.78Q5.87 8.18 6.30 7.69Q6.73 7.21 7.44 6.93Q8.15 6.65 9.03 6.65L9.03 6.65ZM8.79 12.45Q9.32 12.45 9.67 12.17Q10.01 11.90 10.01 11.45L10.01 11.45L10.01 11.14Q10.01 11.05 9.91 11.05L9.91 11.05L9.10 11.05Q8.57 11.05 8.28 11.23Q7.99 11.41 7.99 11.77L7.99 11.77Q7.99 12.08 8.20 12.26Q8.41 12.45 8.79 12.45L8.79 12.45ZM20.20 8.58Q20.50 9.35 20.50 10.35L20.50 10.35Q20.50 11.27 20.27 11.96L20.27 11.96Q19.99 12.91 19.22 13.51Q18.45 14.11 17.54 14.11L17.54 14.11Q16.48 14.11 15.95 13.37L15.95 13.37Q15.90 13.31 15.87 13.33Q15.83 13.34 15.83 13.41L15.83 13.41L15.83 13.75Q15.83 13.86 15.76 13.93Q15.69 14 15.58 14L15.58 14L13.76 14Q13.65 14 13.58 13.93Q13.51 13.86 13.51 13.75L13.51 13.75L13.51 4.45Q13.51 4.34 13.58 4.27Q13.65 4.20 13.76 4.20L13.76 4.20L15.58 4.20Q15.69 4.20 15.76 4.27Q15.83 4.34 15.83 4.45L15.83 4.45L15.83 7.24Q15.83 7.31 15.87 7.32Q15.90 7.34 15.95 7.28L15.95 7.28Q16.48 6.64 17.54 6.64L17.54 6.64Q18.44 6.64 19.16 7.17Q19.88 7.71 20.20 8.58L20.20 8.58ZM17.77 11.55Q18.00 11.10 18.00 10.39L18.00 10.39Q18.00 9.63 17.75 9.17L17.75 9.17Q17.46 8.68 16.91 8.68L16.91 8.68Q16.39 8.68 16.10 9.16L16.10 9.16Q15.85 9.62 15.85 10.39L15.85 10.39Q15.85 11.09 16.09 11.54L16.09 11.54Q16.38 12.07 16.91 12.07L16.91 12.07Q17.47 12.07 17.77 11.55L17.77 11.55ZM21.31 14Q21.20 14 21.13 13.93Q21.06 13.86 21.06 13.75L21.06 13.75L21.06 12.08Q21.06 11.90 21.18 11.77L21.18 11.77L23.97 8.99Q24.01 8.95 24.00 8.90Q23.98 8.86 23.93 8.86L23.93 8.86L21.39 8.86Q21.28 8.86 21.21 8.79Q21.14 8.72 21.14 8.61L21.14 8.61L21.14 7.01Q21.14 6.90 21.21 6.83Q21.28 6.76 21.39 6.76L21.39 6.76L26.60 6.76Q26.71 6.76 26.78 6.83Q26.85 6.90 26.85 7.01L26.85 7.01L26.85 8.68Q26.85 8.86 26.73 8.99L26.73 8.99L23.83 11.77Q23.77 11.83 23.79 11.87Q23.80 11.90 23.87 11.90L23.87 11.90L26.68 11.90Q26.80 11.90 26.87 11.97Q26.94 12.04 26.94 12.15L26.94 12.15L26.94 13.75Q26.94 13.86 26.87 13.93Q26.80 14 26.68 14L26.68 14L21.31 14ZM31.50 12.14Q31.93 12.14 32.30 12.00Q32.68 11.87 32.93 11.65L32.93 11.65Q33.01 11.55 33.11 11.55L33.11 11.55Q33.19 11.55 33.28 11.65L33.28 11.65L34.15 12.68Q34.23 12.78 34.23 12.87L34.23 12.87Q34.23 12.96 34.15 13.05L34.15 13.05Q33.67 13.55 32.94 13.83Q32.21 14.11 31.39 14.11L31.39 14.11Q30.44 14.11 29.70 13.77Q28.97 13.43 28.49 12.81L28.49 12.81Q27.72 11.83 27.72 10.32L27.72 10.32Q27.72 9.65 27.87 9.06L27.87 9.06Q28.18 7.97 29.08 7.30Q29.97 6.64 31.18 6.64L31.18 6.64Q32.58 6.64 33.44 7.50Q34.30 8.37 34.57 9.93L34.57 9.93Q34.62 10.32 34.65 10.78L34.65 10.78Q34.65 11.03 34.40 11.03L34.40 11.03L30.17 11.03Q30.13 11.03 30.09 11.06Q30.06 11.09 30.07 11.14L30.07 11.14L30.16 11.42Q30.30 11.76 30.65 11.95Q31.00 12.14 31.50 12.14L31.50 12.14ZM31.14 8.64Q30.42 8.64 30.17 9.32L30.17 9.32Q30.11 9.46 30.10 9.53L30.10 9.53L30.10 9.56Q30.10 9.65 30.20 9.65L30.20 9.65L32.12 9.65Q32.17 9.65 32.19 9.61Q32.21 9.58 32.20 9.53L32.20 9.53L32.14 9.35Q32.03 9.02 31.78 8.83Q31.53 8.64 31.14 8.64L31.14 8.64ZM39.68 6.65Q40.77 6.65 41.46 7.34Q42.15 8.04 42.15 9.23L42.15 9.23L42.15 13.75Q42.15 13.86 42.08 13.93Q42.01 14 41.90 14L41.90 14L40.08 14Q39.97 14 39.90 13.93Q39.83 13.86 39.83 13.75L39.83 13.75L39.83 9.73Q39.83 9.24 39.57 8.94Q39.31 8.64 38.88 8.64L38.88 8.64Q38.44 8.64 38.18 8.94Q37.91 9.24 37.91 9.73L37.91 9.73L37.91 13.75Q37.91 13.86 37.84 13.93Q37.77 14 37.66 14L37.66 14L35.84 14Q35.73 14 35.66 13.93Q35.59 13.86 35.59 13.75L35.59 13.75L35.59 7.01Q35.59 6.90 35.66 6.83Q35.73 6.76 35.84 6.76L35.84 6.76L37.66 6.76Q37.77 6.76 37.84 6.83Q37.91 6.90 37.91 7.01L37.91 7.01L37.91 7.41Q37.91 7.48 37.95 7.49Q37.98 7.50 38.01 7.45L38.01 7.45Q38.58 6.65 39.68 6.65L39.68 6.65Z"></path></g><!----><g data-v-423bf9ae="" id="ef29d794-ed21-4c29-84d9-7ffcc46bde93" transform="matrix(1.8,0,0,1.8,-45,-45)" stroke="none" fill="black"><path d="M66 41H26a1 1 0 00-1 1v32a1 1 0 001 1h40a1 1 0 001-1V42a1 1 0 00-1-1zm-12 6H30a1 1 0 010-2h24a1 1 0 110 2zm8 0h-4a1 1 0 110-2h4a1 1 0 110 2zm12-22H34a1 1 0 00-1 1v13h33a3 3 0 013 3v17h5a1 1 0 001-1V26a1 1 0 00-1-1zm-12 6H38a1 1 0 010-2h24a1 1 0 110 2zm8 0h-4a1 1 0 110-2h4a1 1 0 110 2z"></path></g><!----></svg>